<?xml version="1.0" encoding="UTF-8"?>
<!DOCTYPE svg PUBLIC "-//W3C//DTD SVG 1.1//EN" "http://www.w3.org/Graphics/SVG/1.1/DTD/svg11.dtd">
<svg xmlns="http://www.w3.org/2000/svg" version="1.1" width="128px" height="128px" style="shape-rendering:geometricPrecision; text-rendering:geometricPrecision; image-rendering:optimizeQuality; fill-rule:evenodd; clip-rule:evenodd" xmlns:xlink="http://www.w3.org/1999/xlink">
<g><path style="opacity:0.799" fill="#070403" d="M 56.5,-0.5 C 61.1667,-0.5 65.8333,-0.5 70.5,-0.5C 102.171,5.83434 121.171,24.8343 127.5,56.5C 127.5,61.1667 127.5,65.8333 127.5,70.5C 121.473,102.527 102.473,121.527 70.5,127.5C 65.8333,127.5 61.1667,127.5 56.5,127.5C 24.5,121.5 5.5,102.5 -0.5,70.5C -0.5,65.8333 -0.5,61.1667 -0.5,56.5C 5.5,24.5 24.5,5.5 56.5,-0.5 Z"/></g>
<g><path style="opacity:1" fill="#f96f00" d="M 54.5,6.5 C 55.8333,6.5 57.1667,6.5 58.5,6.5C 54.7939,8.69105 51.4605,11.5244 48.5,15C 46.5,16 44.5,17 42.5,18C 37.1726,22.3278 32.1726,26.9945 27.5,32C 20.6886,35.3385 15.0219,39.8385 10.5,45.5C 9.83333,45.8333 9.16667,46.1667 8.5,46.5C 9.07488,43.0884 10.4082,40.0884 12.5,37.5C 12.369,38.2389 12.5357,38.9056 13,39.5C 17.2471,36.2916 21.7471,33.4583 26.5,31C 35.0761,22.5845 44.0761,14.7511 53.5,7.5C 54.1667,7.5 54.5,7.16667 54.5,6.5 Z"/></g>
<g><path style="opacity:1" fill="#febf00" d="M 62.5,6.5 C 65.1667,6.5 67.8333,6.5 70.5,6.5C 66.6803,9.47023 62.6803,12.3036 58.5,15C 55.9116,17.4162 53.5782,19.9162 51.5,22.5C 51.1667,22.5 50.8333,22.5 50.5,22.5C 48.5,22.5 46.5,22.5 44.5,22.5C 50.6026,17.339 56.6026,12.0057 62.5,6.5 Z"/></g>
<g><path style="opacity:1" fill="#f9e900" d="M 70.5,6.5 C 73.7273,6.67615 76.7273,7.34281 79.5,8.5C 77.3792,8.32526 75.3792,8.65859 73.5,9.5C 73.4827,7.97189 72.816,7.47189 71.5,8C 66.5457,13.4643 61.2123,18.2977 55.5,22.5C 54.1667,22.5 52.8333,22.5 51.5,22.5C 53.5782,19.9162 55.9116,17.4162 58.5,15C 62.6803,12.3036 66.6803,9.47023 70.5,6.5 Z"/></g>
<g><path style="opacity:1" fill="#b5f018" d="M 79.5,8.5 C 81.6976,8.87513 83.6976,9.5418 85.5,10.5C 83.8008,10.3398 82.1341,10.5065 80.5,11C 75.5,14.6667 70.5,18.3333 65.5,22C 69.1516,22.4986 72.8183,22.6653 76.5,22.5C 67.8333,23.8333 59.1667,23.8333 50.5,22.5C 50.8333,22.5 51.1667,22.5 51.5,22.5C 52.8333,22.5 54.1667,22.5 55.5,22.5C 62.6758,19.9666 68.6758,15.6333 73.5,9.5C 75.3792,8.65859 77.3792,8.32526 79.5,8.5 Z"/></g>
<g><path style="opacity:1" fill="#eafe00" d="M 73.5,9.5 C 68.6758,15.6333 62.6758,19.9666 55.5,22.5C 61.2123,18.2977 66.5457,13.4643 71.5,8C 72.816,7.47189 73.4827,7.97189 73.5,9.5 Z"/></g>
<g><path style="opacity:1" fill="#19fd18" d="M 92.5,14.5 C 94.153,14.6596 95.4863,15.3263 96.5,16.5C 96.4142,17.4959 96.7476,18.3292 97.5,19C 94.6397,21.3603 91.6397,23.527 88.5,25.5C 87.5832,24.8728 86.5832,24.5394 85.5,24.5C 83.1799,22.7739 80.5133,22.1072 77.5,22.5C 81.2061,20.3089 84.5395,17.4756 87.5,14C 88.7441,13.5439 89.5774,14.0439 90,15.5C 90.6708,14.7476 91.5041,14.4142 92.5,14.5 Z"/></g>
<g><path style="opacity:1" fill="#f12600" d="M 54.5,6.5 C 54.5,7.16667 54.1667,7.5 53.5,7.5C 49.1656,8.38853 45.1656,10.0552 41.5,12.5C 32.6478,22.0364 22.9812,30.3698 12.5,37.5C 21.3438,20.3406 35.3438,10.0073 54.5,6.5 Z"/></g>
<g><path style="opacity:1" fill="#65fd00" d="M 85.5,10.5 C 88.0316,11.5957 90.3649,12.9291 92.5,14.5C 91.5041,14.4142 90.6708,14.7476 90,15.5C 89.5774,14.0439 88.7441,13.5439 87.5,14C 84.5395,17.4756 81.2061,20.3089 77.5,22.5C 77.1667,22.5 76.8333,22.5 76.5,22.5C 72.8183,22.6653 69.1516,22.4986 65.5,22C 70.5,18.3333 75.5,14.6667 80.5,11C 82.1341,10.5065 83.8008,10.3398 85.5,10.5 Z"/></g>
<g><path style="opacity:1" fill="#cececd" d="M 44.5,22.5 C 46.5,22.5 48.5,22.5 50.5,22.5C 59.1667,23.8333 67.8333,23.8333 76.5,22.5C 76.8333,22.5 77.1667,22.5 77.5,22.5C 80.5133,22.1072 83.1799,22.7739 85.5,24.5C 87.4602,26.1563 89.4602,27.823 91.5,29.5C 91.5,30.1667 91.5,30.8333 91.5,31.5C 90.3569,31.9081 89.3569,32.5748 88.5,33.5C 89.3742,35.7466 89.7076,38.0799 89.5,40.5C 89.5,41.1667 89.1667,41.5 88.5,41.5C 87.5,41.5 86.5,41.5 85.5,41.5C 85.5,40.1667 85.5,38.8333 85.5,37.5C 85.682,34.9057 86.682,32.739 88.5,31C 87.9535,30.0754 87.2868,29.2421 86.5,28.5C 85.7104,31.9246 84.7104,35.258 83.5,38.5C 83.1961,39.1499 82.8627,39.8165 82.5,40.5C 83.8333,42.1667 85.1667,43.8333 86.5,45.5C 85.7573,46.1818 85.0906,46.8485 84.5,47.5C 83.5,47.5 82.5,47.5 81.5,47.5C 81.1606,50.7857 80.3273,53.7857 79,56.5C 82.9166,59.2105 86.5832,61.5438 90,63.5C 93.2522,56.7296 94.0855,57.063 92.5,64.5C 86.5966,64.3662 81.4299,62.3662 77,58.5C 77.0378,63.9235 75.7045,68.9235 73,73.5C 72.6667,68.8333 72.3333,64.1667 72,59.5C 70.6196,56.1171 68.1196,54.2838 64.5,54C 66.7078,53.8091 68.7078,53.3091 70.5,52.5C 73.9967,53.698 75.6634,52.198 75.5,48C 74.7946,45.4582 73.4613,43.2916 71.5,41.5C 72.4959,41.4142 73.3292,41.7476 74,42.5C 74.2189,41.062 74.7189,39.7287 75.5,38.5C 77.8948,39.5225 78.8948,38.5225 78.5,35.5C 77.448,35.6495 76.448,35.4828 75.5,35C 79.1899,34.3096 80.3566,32.1429 79,28.5C 75.4099,24.2122 71.2432,23.8788 66.5,27.5C 63.6888,26.525 60.6888,25.8583 57.5,25.5C 53.687,24.0902 50.5203,25.0902 48,28.5C 46.6434,32.1429 47.8101,34.3096 51.5,35C 50.552,35.4828 49.552,35.6495 48.5,35.5C 48.4035,38.9559 47.4035,42.1226 45.5,45C 47.4727,45.4955 49.4727,45.6621 51.5,45.5C 50.5298,49.9315 52.1965,52.2648 56.5,52.5C 57.0906,53.1515 57.7573,53.8182 58.5,54.5C 57.1387,56.0284 55.972,57.6951 55,59.5C 54.4254,77.6622 52.7587,77.3289 50,58.5C 44.9608,62.7909 39.1274,64.7909 32.5,64.5C 31.4955,63.3172 30.6622,61.9839 30,60.5C 29.7221,56.8061 29.7221,53.1394 30,49.5C 28.3179,53.7942 28.1512,58.1275 29.5,62.5C 28.3687,63.6039 27.5354,63.2705 27,61.5C 26.4612,56.375 26.7945,51.375 28,46.5C 26.3305,50.3462 25.1639,54.3462 24.5,58.5C 23.5258,56.2573 23.1924,53.924 23.5,51.5C 23.5,50.8333 23.5,50.1667 23.5,49.5C 24.2341,48.2921 24.5674,46.9587 24.5,45.5C 25.6737,44.4863 26.3404,43.153 26.5,41.5C 28.3264,39.8525 29.6597,37.8525 30.5,35.5C 34.5127,30.4882 39.1794,26.1549 44.5,22.5 Z"/></g>
<g><path style="opacity:1" fill="#f7f7f7" d="M 57.5,25.5 C 58.7804,26.9313 60.4471,27.5979 62.5,27.5C 62.762,28.9778 62.4287,30.3112 61.5,31.5C 58.9433,32.4067 56.4433,33.4067 54,34.5C 54.3333,36.8333 54.6667,39.1667 55,41.5C 54.586,41.9574 54.086,42.2907 53.5,42.5C 52.8333,41.1667 52.1667,39.8333 51.5,38.5C 50.8933,38.6236 50.56,38.9569 50.5,39.5C 49.3143,40.9613 49.3143,42.2946 50.5,43.5C 51.3382,43.8417 51.6716,44.5084 51.5,45.5C 49.4727,45.6621 47.4727,45.4955 45.5,45C 47.4035,42.1226 48.4035,38.9559 48.5,35.5C 49.552,35.6495 50.552,35.4828 51.5,35C 47.8101,34.3096 46.6434,32.1429 48,28.5C 50.5203,25.0902 53.687,24.0902 57.5,25.5 Z"/></g>
<g><path style="opacity:1" fill="#f8f8f8" d="M 71.5,41.5 C 71.4772,39.4004 72.1439,37.5671 73.5,36C 73.1639,34.9701 72.4972,34.4701 71.5,34.5C 69.78,33.1359 67.78,32.1359 65.5,31.5C 65.1667,30.8333 64.8333,30.1667 64.5,29.5C 64.7472,28.2867 65.4138,27.62 66.5,27.5C 71.2432,23.8788 75.4099,24.2122 79,28.5C 80.3566,32.1429 79.1899,34.3096 75.5,35C 76.448,35.4828 77.448,35.6495 78.5,35.5C 78.8948,38.5225 77.8948,39.5225 75.5,38.5C 74.7189,39.7287 74.2189,41.062 74,42.5C 73.3292,41.7476 72.4959,41.4142 71.5,41.5 Z"/></g>
<g><path style="opacity:1" fill="#09fd72" d="M 96.5,16.5 C 97.8333,17.5 99.1667,18.5 100.5,19.5C 101.028,20.8474 101.195,22.1807 101,23.5C 98.1984,26.1461 95.0317,28.1461 91.5,29.5C 89.4602,27.823 87.4602,26.1563 85.5,24.5C 86.5832,24.5394 87.5832,24.8728 88.5,25.5C 91.6397,23.527 94.6397,21.3603 97.5,19C 96.7476,18.3292 96.4142,17.4959 96.5,16.5 Z"/></g>
<g><path style="opacity:1" fill="#08fbad" d="M 100.5,19.5 C 102.167,20.5 103.5,21.8333 104.5,23.5C 104.414,24.4959 104.748,25.3292 105.5,26C 102.991,27.4213 100.657,29.0879 98.5,31C 96.9751,32.0086 95.3084,32.5086 93.5,32.5C 92.8333,32.1667 92.1667,31.8333 91.5,31.5C 91.5,30.8333 91.5,30.1667 91.5,29.5C 95.0317,28.1461 98.1984,26.1461 101,23.5C 101.195,22.1807 101.028,20.8474 100.5,19.5 Z"/></g>
<g><path style="opacity:1" fill="#fb9e03" d="M 60.5,6.5 C 61.1667,6.5 61.8333,6.5 62.5,6.5C 56.6026,12.0057 50.6026,17.339 44.5,22.5C 39.1794,26.1549 34.5127,30.4882 30.5,35.5C 27.91,36.1283 25.5766,37.295 23.5,39C 18.3566,43.4056 13.0232,47.5723 7.5,51.5C 7.36596,49.7085 7.69929,48.0418 8.5,46.5C 9.16667,46.1667 9.83333,45.8333 10.5,45.5C 19.5788,39.262 28.2455,32.4287 36.5,25C 40.0587,23.37 43.392,21.37 46.5,19C 50.7634,14.2285 55.43,10.0618 60.5,6.5 Z"/></g>
<g><path style="opacity:1" fill="#3d3d3d" d="M 41.5,37.5 C 41.1667,36.1667 40.8333,34.8333 40.5,33.5C 40.4226,32.2502 39.756,31.4169 38.5,31C 39.0465,30.0754 39.7132,29.2421 40.5,28.5C 41.1844,31.6163 42.1844,34.6163 43.5,37.5C 43.0302,38.463 42.3635,38.463 41.5,37.5 Z"/></g>
<g><path style="opacity:1" fill="#3d3d3d" d="M 85.5,37.5 C 84.8333,37.8333 84.1667,38.1667 83.5,38.5C 84.7104,35.258 85.7104,31.9246 86.5,28.5C 87.2868,29.2421 87.9535,30.0754 88.5,31C 86.682,32.739 85.682,34.9057 85.5,37.5 Z"/></g>
<g><path style="opacity:1" fill="#08f6d6" d="M 104.5,23.5 C 106.167,24.5 107.5,25.8333 108.5,27.5C 104.246,29.7485 100.246,32.4152 96.5,35.5C 95.1667,34.8333 94.1667,33.8333 93.5,32.5C 95.3084,32.5086 96.9751,32.0086 98.5,31C 100.657,29.0879 102.991,27.4213 105.5,26C 104.748,25.3292 104.414,24.4959 104.5,23.5 Z"/></g>
<g><path style="opacity:1" fill="#fe5100" d="M 53.5,7.5 C 44.0761,14.7511 35.0761,22.5845 26.5,31C 21.7471,33.4583 17.2471,36.2916 13,39.5C 12.5357,38.9056 12.369,38.2389 12.5,37.5C 22.9812,30.3698 32.6478,22.0364 41.5,12.5C 45.1656,10.0552 49.1656,8.38853 53.5,7.5 Z"/></g>
<g><path style="opacity:1" fill="#aeaeae" d="M 57.5,25.5 C 60.6888,25.8583 63.6888,26.525 66.5,27.5C 65.4138,27.62 64.7472,28.2867 64.5,29.5C 64.8333,30.1667 65.1667,30.8333 65.5,31.5C 67.78,32.1359 69.78,33.1359 71.5,34.5C 72.4972,34.4701 73.1639,34.9701 73.5,36C 72.1439,37.5671 71.4772,39.4004 71.5,41.5C 63.9798,39.3285 57.3132,40.6619 51.5,45.5C 51.6716,44.5084 51.3382,43.8417 50.5,43.5C 51.3543,41.965 51.3543,40.6316 50.5,39.5C 50.56,38.9569 50.8933,38.6236 51.5,38.5C 52.1667,39.8333 52.8333,41.1667 53.5,42.5C 54.086,42.2907 54.586,41.9574 55,41.5C 54.6667,39.1667 54.3333,36.8333 54,34.5C 56.4433,33.4067 58.9433,32.4067 61.5,31.5C 62.4287,30.3112 62.762,28.9778 62.5,27.5C 60.4471,27.5979 58.7804,26.9313 57.5,25.5 Z"/></g>
<g><path style="opacity:1" fill="#f8f8f8" d="M 61.5,32.5 C 62.8112,34.5598 62.8112,36.7265 61.5,39C 58.3977,39.8255 56.0643,38.8255 54.5,36C 56.8583,34.7245 59.1916,33.5578 61.5,32.5 Z"/></g>
<g><path style="opacity:1" fill="#f7f7f7" d="M 71.5,34.5 C 72.5092,35.9391 72.1759,37.2724 70.5,38.5C 68.604,39.4656 66.604,39.7989 64.5,39.5C 64.3367,37.1432 64.5034,34.8098 65,32.5C 67.0065,33.6687 69.1732,34.3354 71.5,34.5 Z"/></g>
<g><path style="opacity:1" fill="#fe8600" d="M 58.5,6.5 C 59.1667,6.5 59.8333,6.5 60.5,6.5C 55.43,10.0618 50.7634,14.2285 46.5,19C 43.392,21.37 40.0587,23.37 36.5,25C 28.2455,32.4287 19.5788,39.262 10.5,45.5C 15.0219,39.8385 20.6886,35.3385 27.5,32C 32.1726,26.9945 37.1726,22.3278 42.5,18C 44.5,17 46.5,16 48.5,15C 51.4605,11.5244 54.7939,8.69105 58.5,6.5 Z"/></g>
<g><path style="opacity:1" fill="#f1f1f1" d="M 38.5,33.5 C 39.1667,33.5 39.8333,33.5 40.5,33.5C 40.8333,34.8333 41.1667,36.1667 41.5,37.5C 41.5,38.8333 41.5,40.1667 41.5,41.5C 40.5,41.5 39.5,41.5 38.5,41.5C 37.2329,38.9387 37.2329,36.272 38.5,33.5 Z"/></g>
<g><path style="opacity:1" fill="#0faaf5" d="M 110.5,30.5 C 111.89,31.8993 112.89,33.5659 113.5,35.5C 112.883,35.3893 112.383,35.056 112,34.5C 108.335,37.3995 104.835,40.3995 101.5,43.5C 100.026,42.5637 99.0256,41.2303 98.5,39.5C 104.001,38.4245 108.001,35.4245 110.5,30.5 Z"/></g>
<g><path style="opacity:1" fill="#a4a6a5" d="M 91.5,31.5 C 92.1667,31.8333 92.8333,32.1667 93.5,32.5C 94.1667,33.8333 95.1667,34.8333 96.5,35.5C 96.5569,36.609 96.8902,37.609 97.5,38.5C 96.6981,39.9516 96.1981,41.6183 96,43.5C 95.8078,41.4233 95.3078,39.4233 94.5,37.5C 92.3432,38.9664 92.0099,40.7997 93.5,43C 92.9056,43.4643 92.2389,43.631 91.5,43.5C 91.6621,41.4727 91.4955,39.4727 91,37.5C 90.7679,38.7375 90.2679,39.7375 89.5,40.5C 89.7076,38.0799 89.3742,35.7466 88.5,33.5C 89.3569,32.5748 90.3569,31.9081 91.5,31.5 Z"/></g>
<g><path style="opacity:1" fill="#0ef2f9" d="M 108.5,27.5 C 108.649,28.552 108.483,29.552 108,30.5C 104.855,33.3038 101.688,35.9704 98.5,38.5C 98.1667,38.5 97.8333,38.5 97.5,38.5C 96.8902,37.609 96.5569,36.609 96.5,35.5C 100.246,32.4152 104.246,29.7485 108.5,27.5 Z"/></g>
<g><path style="opacity:1" fill="#03cffc" d="M 108.5,27.5 C 109.401,28.2905 110.068,29.2905 110.5,30.5C 108.001,35.4245 104.001,38.4245 98.5,39.5C 98.5,39.1667 98.5,38.8333 98.5,38.5C 101.688,35.9704 104.855,33.3038 108,30.5C 108.483,29.552 108.649,28.552 108.5,27.5 Z"/></g>
<g><path style="opacity:1" fill="#0a7ff8" d="M 113.5,35.5 C 114.338,35.8417 114.672,36.5084 114.5,37.5C 109.776,39.5293 105.776,42.5293 102.5,46.5C 101.596,45.791 101.263,44.791 101.5,43.5C 104.835,40.3995 108.335,37.3995 112,34.5C 112.383,35.056 112.883,35.3893 113.5,35.5 Z"/></g>
<g><path style="opacity:1" fill="#fbc203" d="M 30.5,35.5 C 29.6597,37.8525 28.3264,39.8525 26.5,41.5C 26.5654,41.0618 26.3988,40.7284 26,40.5C 19.3601,45.6377 12.8601,50.971 6.5,56.5C 6.36596,54.7085 6.69929,53.0418 7.5,51.5C 13.0232,47.5723 18.3566,43.4056 23.5,39C 25.5766,37.295 27.91,36.1283 30.5,35.5 Z"/></g>
<g><path style="opacity:1" fill="#2f2f2f" d="M 38.5,33.5 C 37.2329,36.272 37.2329,38.9387 38.5,41.5C 38.9175,42.2216 39.5842,42.7216 40.5,43C 39.0953,44.2692 37.4286,44.7692 35.5,44.5C 35.1885,40.3196 35.8552,36.3196 37.5,32.5C 38.1067,32.6236 38.44,32.9569 38.5,33.5 Z"/></g>
<g><path style="opacity:1" fill="#282828" d="M 50.5,39.5 C 51.3543,40.6316 51.3543,41.965 50.5,43.5C 49.3143,42.2946 49.3143,40.9613 50.5,39.5 Z"/></g>
<g><path style="opacity:1" fill="#f9f9f9" d="M 71.5,41.5 C 73.4613,43.2916 74.7946,45.4582 75.5,48C 75.6634,52.198 73.9967,53.698 70.5,52.5C 65.8233,51.2591 61.1567,51.2591 56.5,52.5C 52.1965,52.2648 50.5298,49.9315 51.5,45.5C 57.3132,40.6619 63.9798,39.3285 71.5,41.5 Z"/></g>
<g><path style="opacity:1" fill="#161616" d="M 91.5,43.5 C 91.5,44.1667 91.1667,44.5 90.5,44.5C 86.7498,44.4962 86.0831,43.4962 88.5,41.5C 89.1667,41.5 89.5,41.1667 89.5,40.5C 90.2679,39.7375 90.7679,38.7375 91,37.5C 91.4955,39.4727 91.6621,41.4727 91.5,43.5 Z"/></g>
<g><path style="opacity:1" fill="#919191" d="M 85.5,37.5 C 85.5,38.8333 85.5,40.1667 85.5,41.5C 86.5,41.5 87.5,41.5 88.5,41.5C 86.0831,43.4962 86.7498,44.4962 90.5,44.5C 93.1852,45.7757 95.8519,45.4424 98.5,43.5C 99.087,44.2334 99.087,45.2334 98.5,46.5C 97.8826,46.3893 97.3826,46.056 97,45.5C 96.51,46.7932 96.3433,48.1266 96.5,49.5C 95.0559,46.2867 93.2226,45.9534 91,48.5C 90.5814,47.3279 89.9147,46.3279 89,45.5C 87.951,47.1066 86.451,47.7733 84.5,47.5C 85.0906,46.8485 85.7573,46.1818 86.5,45.5C 85.1667,43.8333 83.8333,42.1667 82.5,40.5C 82.8627,39.8165 83.1961,39.1499 83.5,38.5C 84.1667,38.1667 84.8333,37.8333 85.5,37.5 Z"/></g>
<g><path style="opacity:1" fill="#065cf9" d="M 114.5,37.5 C 115.674,38.5137 116.34,39.847 116.5,41.5C 115.577,40.6971 114.577,40.5304 113.5,41C 109.724,42.9474 106.39,45.4474 103.5,48.5C 102.662,48.1583 102.328,47.4916 102.5,46.5C 105.776,42.5293 109.776,39.5293 114.5,37.5 Z"/></g>
<g><path style="opacity:1" fill="#f6f6f6" d="M 36.5,47.5 C 36.3331,51.0959 36.8331,54.7626 38,58.5C 38.5803,44.7102 40.0803,44.3768 42.5,57.5C 42.3333,58.5 42.1667,59.5 42,60.5C 40.4288,60.2505 38.9288,60.9171 37.5,62.5C 36.3527,62.1822 35.5194,61.5156 35,60.5C 34.1509,55.9735 34.6509,51.6402 36.5,47.5 Z"/></g>
<g><path style="opacity:1" fill="#0730f9" d="M 116.5,41.5 C 118.302,44.5742 119.302,47.9076 119.5,51.5C 118.262,49.7857 117.595,47.7857 117.5,45.5C 116.127,45.3433 114.793,45.51 113.5,46C 110.742,48.2996 107.742,50.1329 104.5,51.5C 103.596,50.791 103.263,49.791 103.5,48.5C 106.39,45.4474 109.724,42.9474 113.5,41C 114.577,40.5304 115.577,40.6971 116.5,41.5 Z"/></g>
<g><path style="opacity:1" fill="#fde301" d="M 26.5,41.5 C 26.3404,43.153 25.6737,44.4863 24.5,45.5C 19.7328,46.8864 16.0662,49.7197 13.5,54C 10.7666,54.9042 8.43331,56.4042 6.5,58.5C 6.5,57.8333 6.5,57.1667 6.5,56.5C 12.8601,50.971 19.3601,45.6377 26,40.5C 26.3988,40.7284 26.5654,41.0618 26.5,41.5 Z"/></g>
<g><path style="opacity:1" fill="#3502fe" d="M 119.5,51.5 C 119.586,52.4959 119.252,53.3292 118.5,54C 112.667,58.5 106.833,63 101,67.5C 100.7,65.9343 101.2,64.601 102.5,63.5C 104.143,59.7047 104.809,55.7047 104.5,51.5C 107.742,50.1329 110.742,48.2996 113.5,46C 114.793,45.51 116.127,45.3433 117.5,45.5C 117.595,47.7857 118.262,49.7857 119.5,51.5 Z"/></g>
<g><path style="opacity:1" fill="#f6fc01" d="M 24.5,45.5 C 24.5674,46.9587 24.2341,48.2921 23.5,49.5C 18.2227,51.2636 13.8894,54.4303 10.5,59C 9.25501,59.7914 7.92167,60.2914 6.5,60.5C 6.5,59.8333 6.5,59.1667 6.5,58.5C 8.43331,56.4042 10.7666,54.9042 13.5,54C 16.0662,49.7197 19.7328,46.8864 24.5,45.5 Z"/></g>
<g><path style="opacity:1" fill="#111111" d="M 70.5,52.5 C 68.7078,53.3091 66.7078,53.8091 64.5,54C 68.1196,54.2838 70.6196,56.1171 72,59.5C 72.3333,64.1667 72.6667,68.8333 73,73.5C 75.7045,68.9235 77.0378,63.9235 77,58.5C 81.4299,62.3662 86.5966,64.3662 92.5,64.5C 94.5,64.5 96.5,64.5 98.5,64.5C 98.1667,65.5 97.5,66.1667 96.5,66.5C 95.2789,65.5354 93.9456,65.702 92.5,67C 85.8022,74.8919 79.9688,83.3919 75,92.5C 73.1667,94.3333 71.3333,96.1667 69.5,98C 68.2506,98.7401 67.2506,98.5735 66.5,97.5C 69.629,96.2048 71.9624,94.0381 73.5,91C 72.0573,86.9634 71.224,82.7967 71,78.5C 70.6667,81.5 70.3333,84.5 70,87.5C 69.1779,85.2115 68.5112,82.8782 68,80.5C 67.6667,81.5 67.3333,82.5 67,83.5C 64.6667,80.8333 62.3333,80.8333 60,83.5C 59.6667,82.8333 59.3333,82.1667 59,81.5C 58.3333,83.5 57.6667,85.5 57,87.5C 56.718,83.9984 56.5513,80.6651 56.5,77.5C 55.9244,82.1227 54.9244,86.6227 53.5,91C 55.0586,94.0606 57.3919,96.2273 60.5,97.5C 59.7494,98.5735 58.7494,98.7401 57.5,98C 55.6667,96.1667 53.8333,94.3333 52,92.5C 47.5251,83.0444 41.6918,74.5444 34.5,67C 33.0544,65.702 31.7211,65.5354 30.5,66.5C 29.5,66.1667 28.8333,65.5 28.5,64.5C 29.8333,64.5 31.1667,64.5 32.5,64.5C 39.1274,64.7909 44.9608,62.7909 50,58.5C 52.7587,77.3289 54.4254,77.6622 55,59.5C 55.972,57.6951 57.1387,56.0284 58.5,54.5C 57.7573,53.8182 57.0906,53.1515 56.5,52.5C 61.1567,51.2591 65.8233,51.2591 70.5,52.5 Z"/></g>
<g><path style="opacity:1" fill="#d5fe00" d="M 23.5,49.5 C 23.5,50.1667 23.5,50.8333 23.5,51.5C 22.8333,51.5 22.5,51.8333 22.5,52.5C 17.4495,56.8847 12.1162,60.8847 6.5,64.5C 6.5,63.1667 6.5,61.8333 6.5,60.5C 7.92167,60.2914 9.25501,59.7914 10.5,59C 13.8894,54.4303 18.2227,51.2636 23.5,49.5 Z"/></g>
<g><path style="opacity:0.999" fill="#adb5a7" d="M 32.5,64.5 C 31.1667,64.5 29.8333,64.5 28.5,64.5C 26.0672,64.7271 24.4006,63.7271 23.5,61.5C 22.962,59.8828 22.6287,58.2161 22.5,56.5C 22.5,55.1667 22.5,53.8333 22.5,52.5C 22.5,51.8333 22.8333,51.5 23.5,51.5C 23.1924,53.924 23.5258,56.2573 24.5,58.5C 25.1639,54.3462 26.3305,50.3462 28,46.5C 26.7945,51.375 26.4612,56.375 27,61.5C 27.5354,63.2705 28.3687,63.6039 29.5,62.5C 28.1512,58.1275 28.3179,53.7942 30,49.5C 29.7221,53.1394 29.7221,56.8061 30,60.5C 30.6622,61.9839 31.4955,63.3172 32.5,64.5 Z"/></g>
<g><path style="opacity:1" fill="#e2e2e4" d="M 97.5,38.5 C 97.8333,38.5 98.1667,38.5 98.5,38.5C 98.5,38.8333 98.5,39.1667 98.5,39.5C 99.0256,41.2303 100.026,42.5637 101.5,43.5C 101.263,44.791 101.596,45.791 102.5,46.5C 102.328,47.4916 102.662,48.1583 103.5,48.5C 103.263,49.791 103.596,50.791 104.5,51.5C 104.809,55.7047 104.143,59.7047 102.5,63.5C 101.167,63.8333 99.8333,64.1667 98.5,64.5C 96.5,64.5 94.5,64.5 92.5,64.5C 94.0855,57.063 93.2522,56.7296 90,63.5C 86.5832,61.5438 82.9166,59.2105 79,56.5C 80.3273,53.7857 81.1606,50.7857 81.5,47.5C 82.5,47.5 83.5,47.5 84.5,47.5C 86.451,47.7733 87.951,47.1066 89,45.5C 89.9147,46.3279 90.5814,47.3279 91,48.5C 93.2226,45.9534 95.0559,46.2867 96.5,49.5C 98.6541,53.5822 98.9874,57.9156 97.5,62.5C 98.1667,63.8333 98.8333,63.8333 99.5,62.5C 100.661,57.1076 100.328,51.7743 98.5,46.5C 99.087,45.2334 99.087,44.2334 98.5,43.5C 95.8519,45.4424 93.1852,45.7757 90.5,44.5C 91.1667,44.5 91.5,44.1667 91.5,43.5C 92.2389,43.631 92.9056,43.4643 93.5,43C 92.0099,40.7997 92.3432,38.9664 94.5,37.5C 95.3078,39.4233 95.8078,41.4233 96,43.5C 96.1981,41.6183 96.6981,39.9516 97.5,38.5 Z"/></g>
<g><path style="opacity:1" fill="#f6f6f6" d="M 98.5,46.5 C 100.328,51.7743 100.661,57.1076 99.5,62.5C 98.8333,63.8333 98.1667,63.8333 97.5,62.5C 98.9874,57.9156 98.6541,53.5822 96.5,49.5C 96.3433,48.1266 96.51,46.7932 97,45.5C 97.3826,46.056 97.8826,46.3893 98.5,46.5 Z"/></g>
<g><path style="opacity:1" fill="#aefe00" d="M 22.5,52.5 C 22.5,53.8333 22.5,55.1667 22.5,56.5C 17.468,60.8603 12.1347,64.8603 6.5,68.5C 6.5,67.1667 6.5,65.8333 6.5,64.5C 12.1162,60.8847 17.4495,56.8847 22.5,52.5 Z"/></g>
<g><path style="opacity:1" fill="#8908f8" d="M 119.5,51.5 C 120.473,53.9479 120.806,56.6146 120.5,59.5C 110.55,67.4801 100.217,74.9801 89.5,82C 87.2147,84.4258 85.2147,87.0925 83.5,90C 82.0993,90.4101 80.766,90.9101 79.5,91.5C 83.9459,82.255 89.6126,73.9217 96.5,66.5C 97.5,66.1667 98.1667,65.5 98.5,64.5C 99.8333,64.1667 101.167,63.8333 102.5,63.5C 101.2,64.601 100.7,65.9343 101,67.5C 106.833,63 112.667,58.5 118.5,54C 119.252,53.3292 119.586,52.4959 119.5,51.5 Z"/></g>
<g><path style="opacity:1" fill="#70f700" d="M 22.5,56.5 C 22.6287,58.2161 22.962,59.8828 23.5,61.5C 18.1998,64.831 13.1998,68.6643 8.5,73C 9.64055,73.7412 9.64055,74.5745 8.5,75.5C 9.02527,76.1924 9.69194,76.6924 10.5,77C 9.61983,78.3561 9.28649,79.8561 9.5,81.5C 7.12362,77.5946 6.12362,73.2613 6.5,68.5C 12.1347,64.8603 17.468,60.8603 22.5,56.5 Z"/></g>
<g><path style="opacity:1" fill="#25fe10" d="M 23.5,61.5 C 24.4006,63.7271 26.0672,64.7271 28.5,64.5C 28.8333,65.5 29.5,66.1667 30.5,66.5C 30.5,66.8333 30.5,67.1667 30.5,67.5C 29.9613,70.0416 28.628,72.2082 26.5,74C 21.6257,76.6068 17.2924,79.9401 13.5,84C 12.552,84.4828 11.552,84.6495 10.5,84.5C 9.59603,83.791 9.26269,82.791 9.5,81.5C 9.28649,79.8561 9.61983,78.3561 10.5,77C 9.69194,76.6924 9.02527,76.1924 8.5,75.5C 9.64055,74.5745 9.64055,73.7412 8.5,73C 13.1998,68.6643 18.1998,64.831 23.5,61.5 Z"/></g>
<g><path style="opacity:1" fill="#fc00c3" d="M 120.5,70.5 C 120.567,71.9587 120.234,73.2921 119.5,74.5C 104.087,85.0839 89.4199,96.5839 75.5,109C 70.7902,110.55 67.1235,113.383 64.5,117.5C 63.1283,118.512 61.795,119.512 60.5,120.5C 57.6146,120.806 54.9479,120.473 52.5,119.5C 53.1667,119.5 53.8333,119.5 54.5,119.5C 62.4126,116.023 69.4126,111.19 75.5,105C 79.7392,103.098 83.7392,100.765 87.5,98C 98.1614,88.3488 109.161,79.1821 120.5,70.5 Z"/></g>
<g><path style="opacity:1" fill="#05fd56" d="M 30.5,67.5 C 32.7099,67.894 34.0432,69.2273 34.5,71.5C 31.0089,75.929 26.6755,79.429 21.5,82C 19.5,84 17.5,86 15.5,88C 14.1807,88.195 12.8474,88.0283 11.5,87.5C 10.8902,86.609 10.5569,85.609 10.5,84.5C 11.552,84.6495 12.552,84.4828 13.5,84C 17.2924,79.9401 21.6257,76.6068 26.5,74C 28.628,72.2082 29.9613,70.0416 30.5,67.5 Z"/></g>
<g><path style="opacity:1" fill="#04fc81" d="M 34.5,71.5 C 35.5,71.8333 36.1667,72.5 36.5,73.5C 30.4082,78.9129 23.7416,84.7462 16.5,91C 15.552,91.4828 14.552,91.6495 13.5,91.5C 12.3995,90.3951 11.7329,89.0618 11.5,87.5C 12.8474,88.0283 14.1807,88.195 15.5,88C 17.5,86 19.5,84 21.5,82C 26.6755,79.429 31.0089,75.929 34.5,71.5 Z"/></g>
<g><path style="opacity:1" fill="#07fce3" d="M 38.5,76.5 C 39.1667,76.5 39.5,76.8333 39.5,77.5C 39.4506,80.0991 38.4506,82.2658 36.5,84C 31.6257,86.6068 27.2924,89.9401 23.5,94C 21.2346,95.1178 18.9013,95.9512 16.5,96.5C 15.5987,95.7095 14.9321,94.7095 14.5,93.5C 15.1667,93.5 15.8333,93.5 16.5,93.5C 16.4346,93.9382 16.6012,94.2716 17,94.5C 22.5336,89.9746 28.367,85.8079 34.5,82C 36.4641,80.549 37.7974,78.7157 38.5,76.5 Z"/></g>
<g><path style="opacity:1" fill="#02fec5" d="M 37.5,75.5 C 38.1667,75.5 38.5,75.8333 38.5,76.5C 37.7974,78.7157 36.4641,80.549 34.5,82C 28.367,85.8079 22.5336,89.9746 17,94.5C 16.6012,94.2716 16.4346,93.9382 16.5,93.5C 21.6814,88.8394 27.3481,84.6728 33.5,81C 35.0764,79.27 36.4097,77.4367 37.5,75.5 Z"/></g>
<g><path style="opacity:1" fill="#c704fb" d="M 120.5,59.5 C 120.5,60.5 120.5,61.5 120.5,62.5C 112.413,68.5378 104.746,75.0378 97.5,82C 90.0936,85.4435 84.2602,90.6102 80,97.5C 79.5831,96.244 78.7498,95.5774 77.5,95.5C 77.6596,93.847 78.3263,92.5137 79.5,91.5C 80.766,90.9101 82.0993,90.4101 83.5,90C 85.2147,87.0925 87.2147,84.4258 89.5,82C 100.217,74.9801 110.55,67.4801 120.5,59.5 Z"/></g>
<g><path style="opacity:1" fill="#05fca8" d="M 36.5,73.5 C 37.3382,73.8417 37.6716,74.5084 37.5,75.5C 36.4097,77.4367 35.0764,79.27 33.5,81C 27.3481,84.6728 21.6814,88.8394 16.5,93.5C 15.8333,93.5 15.1667,93.5 14.5,93.5C 14.1667,92.8333 13.8333,92.1667 13.5,91.5C 14.552,91.6495 15.552,91.4828 16.5,91C 23.7416,84.7462 30.4082,78.9129 36.5,73.5 Z"/></g>
<g><path style="opacity:1" fill="#f301fb" d="M 120.5,62.5 C 120.5,64.1667 120.5,65.8333 120.5,67.5C 106.851,77.9831 93.3508,88.6497 80,99.5C 79.6667,99.1667 79.3333,98.8333 79,98.5C 76.1705,104.159 75.0038,103.825 75.5,97.5C 75.8333,96.5 76.5,95.8333 77.5,95.5C 78.7498,95.5774 79.5831,96.244 80,97.5C 84.2602,90.6102 90.0936,85.4435 97.5,82C 104.746,75.0378 112.413,68.5378 120.5,62.5 Z"/></g>
<g><path style="opacity:1" fill="#c8c7ca" d="M 60.5,97.5 C 62.5,97.5 64.5,97.5 66.5,97.5C 67.2506,98.5735 68.2506,98.7401 69.5,98C 71.3333,96.1667 73.1667,94.3333 75,92.5C 79.9688,83.3919 85.8022,74.8919 92.5,67C 93.9456,65.702 95.2789,65.5354 96.5,66.5C 89.6126,73.9217 83.9459,82.255 79.5,91.5C 78.3263,92.5137 77.6596,93.847 77.5,95.5C 76.5,95.8333 75.8333,96.5 75.5,97.5C 74.5,97.8333 73.8333,98.5 73.5,99.5C 71.597,99.7959 69.9303,100.463 68.5,101.5C 61.5918,102.565 55.5918,100.898 50.5,96.5C 50.1667,95.8333 49.8333,95.1667 49.5,94.5C 49.1667,93.8333 48.8333,93.1667 48.5,92.5C 48.0679,91.2905 47.4013,90.2905 46.5,89.5C 45.9213,86.6689 44.588,84.3356 42.5,82.5C 41.8897,80.5659 40.8897,78.8993 39.5,77.5C 39.5,76.8333 39.1667,76.5 38.5,76.5C 38.5,75.8333 38.1667,75.5 37.5,75.5C 37.6716,74.5084 37.3382,73.8417 36.5,73.5C 36.1667,72.5 35.5,71.8333 34.5,71.5C 34.0432,69.2273 32.7099,67.894 30.5,67.5C 30.5,67.1667 30.5,66.8333 30.5,66.5C 31.7211,65.5354 33.0544,65.702 34.5,67C 41.6918,74.5444 47.5251,83.0444 52,92.5C 53.8333,94.3333 55.6667,96.1667 57.5,98C 58.7494,98.7401 59.7494,98.5735 60.5,97.5 Z"/></g>
<g><path style="opacity:1" fill="#e8e8e8" d="M 66.5,97.5 C 64.5,97.5 62.5,97.5 60.5,97.5C 57.3919,96.2273 55.0586,94.0606 53.5,91C 54.9244,86.6227 55.9244,82.1227 56.5,77.5C 56.5513,80.6651 56.718,83.9984 57,87.5C 57.6667,85.5 58.3333,83.5 59,81.5C 59.3333,82.1667 59.6667,82.8333 60,83.5C 62.3333,80.8333 64.6667,80.8333 67,83.5C 67.3333,82.5 67.6667,81.5 68,80.5C 68.5112,82.8782 69.1779,85.2115 70,87.5C 70.3333,84.5 70.6667,81.5 71,78.5C 71.224,82.7967 72.0573,86.9634 73.5,91C 71.9624,94.0381 69.629,96.2048 66.5,97.5 Z"/></g>
<g><path style="opacity:1" fill="#303030" d="M 61.5,84.5 C 62.8333,84.5 64.1667,84.5 65.5,84.5C 65.8841,86.6648 65.2174,88.3315 63.5,89.5C 61.7826,88.3315 61.1159,86.6648 61.5,84.5 Z"/></g>
<g><path style="opacity:1" fill="#fc02dc" d="M 120.5,67.5 C 120.5,68.5 120.5,69.5 120.5,70.5C 109.161,79.1821 98.1614,88.3488 87.5,98C 83.7392,100.765 79.7392,103.098 75.5,105C 69.4126,111.19 62.4126,116.023 54.5,119.5C 58.8989,116.611 62.8989,113.111 66.5,109C 71.0368,108.088 73.7035,105.422 74.5,101C 74.4301,100.235 74.0967,99.7352 73.5,99.5C 73.8333,98.5 74.5,97.8333 75.5,97.5C 75.0038,103.825 76.1705,104.159 79,98.5C 79.3333,98.8333 79.6667,99.1667 80,99.5C 93.3508,88.6497 106.851,77.9831 120.5,67.5 Z"/></g>
<g><path style="opacity:1" fill="#11ecf8" d="M 39.5,77.5 C 40.8897,78.8993 41.8897,80.5659 42.5,82.5C 36.4995,86.5102 30.8328,91.0102 25.5,96C 23.3496,97.4114 21.0163,98.2447 18.5,98.5C 17.5,98.1667 16.8333,97.5 16.5,96.5C 18.9013,95.9512 21.2346,95.1178 23.5,94C 27.2924,89.9401 31.6257,86.6068 36.5,84C 38.4506,82.2658 39.4506,80.0991 39.5,77.5 Z"/></g>
<g><path style="opacity:1" fill="#0a69f9" d="M 46.5,89.5 C 47.4013,90.2905 48.0679,91.2905 48.5,92.5C 44.8733,93.2796 41.54,94.7796 38.5,97C 35.579,100.592 32.079,103.425 28,105.5C 27.5172,106.448 27.3505,107.448 27.5,108.5C 26.1667,107.833 25.1667,106.833 24.5,105.5C 31.1435,99.6977 37.9768,94.031 45,88.5C 45.3826,89.056 45.8826,89.3893 46.5,89.5 Z"/></g>
<g><path style="opacity:1" fill="#fe00af" d="M 119.5,74.5 C 119.5,75.1667 119.5,75.8333 119.5,76.5C 104.458,86.7425 90.1245,97.9091 76.5,110C 72.0658,111.96 68.0658,114.46 64.5,117.5C 67.1235,113.383 70.7902,110.55 75.5,109C 89.4199,96.5839 104.087,85.0839 119.5,74.5 Z"/></g>
<g><path style="opacity:1" fill="#fd009b" d="M 119.5,76.5 C 119.204,78.403 118.537,80.0697 117.5,81.5C 117.44,80.9569 117.107,80.6236 116.5,80.5C 106.847,86.1505 98.1799,92.9838 90.5,101C 84.1667,105.333 77.8333,109.667 71.5,114C 69.2941,116.037 67.2941,118.203 65.5,120.5C 63.8333,120.5 62.1667,120.5 60.5,120.5C 61.795,119.512 63.1283,118.512 64.5,117.5C 68.0658,114.46 72.0658,111.96 76.5,110C 90.1245,97.9091 104.458,86.7425 119.5,76.5 Z"/></g>
<g><path style="opacity:1" fill="#05c8fc" d="M 42.5,82.5 C 42.7852,84.288 42.4519,85.9547 41.5,87.5C 34.2252,91.7864 27.5585,96.7864 21.5,102.5C 20.0256,101.564 19.0256,100.23 18.5,98.5C 21.0163,98.2447 23.3496,97.4114 25.5,96C 30.8328,91.0102 36.4995,86.5102 42.5,82.5 Z"/></g>
<g><path style="opacity:1" fill="#0e9cf9" d="M 42.5,82.5 C 44.588,84.3356 45.9213,86.6689 46.5,89.5C 45.8826,89.3893 45.3826,89.056 45,88.5C 37.9768,94.031 31.1435,99.6977 24.5,105.5C 23.1667,104.833 22.1667,103.833 21.5,102.5C 27.5585,96.7864 34.2252,91.7864 41.5,87.5C 42.4519,85.9547 42.7852,84.288 42.5,82.5 Z"/></g>
<g><path style="opacity:1" fill="#fe0082" d="M 117.5,81.5 C 117.443,82.609 117.11,83.609 116.5,84.5C 113.726,85.7226 111.059,87.2226 108.5,89C 95.2444,100.096 81.5777,110.596 67.5,120.5C 66.8333,120.5 66.1667,120.5 65.5,120.5C 67.2941,118.203 69.2941,116.037 71.5,114C 77.8333,109.667 84.1667,105.333 90.5,101C 98.1799,92.9838 106.847,86.1505 116.5,80.5C 117.107,80.6236 117.44,80.9569 117.5,81.5 Z"/></g>
<g><path style="opacity:1" fill="#0740f9" d="M 48.5,92.5 C 48.8333,93.1667 49.1667,93.8333 49.5,94.5C 46.1749,97.1754 42.1749,99.6754 37.5,102C 34.205,104.12 31.8716,106.954 30.5,110.5C 29.2905,110.068 28.2905,109.401 27.5,108.5C 27.3505,107.448 27.5172,106.448 28,105.5C 32.079,103.425 35.579,100.592 38.5,97C 41.54,94.7796 44.8733,93.2796 48.5,92.5 Z"/></g>
<g><path style="opacity:1" fill="#fb005a" d="M 116.5,84.5 C 116.107,86.2838 115.441,87.9505 114.5,89.5C 106.912,93.4626 100.246,98.6293 94.5,105C 88.1667,109.333 81.8333,113.667 75.5,118C 76.448,118.483 77.448,118.649 78.5,118.5C 75.1244,120.082 71.4578,120.749 67.5,120.5C 81.5777,110.596 95.2444,100.096 108.5,89C 111.059,87.2226 113.726,85.7226 116.5,84.5 Z"/></g>
<g><path style="opacity:1" fill="#8b0af7" d="M 50.5,96.5 C 55.5918,100.898 61.5918,102.565 68.5,101.5C 61.9256,106.221 55.4256,111.221 49,116.5C 48.8333,116.833 48.6667,117.167 48.5,117.5C 49.6016,118.176 50.6016,118.842 51.5,119.5C 47.0845,119.139 43.0845,117.806 39.5,115.5C 42.8601,111.982 46.6935,108.982 51,106.5C 51.6588,103.112 51.4922,99.7786 50.5,96.5 Z"/></g>
<g><path style="opacity:1" fill="#f10017" d="M 110.5,95.5 C 103.322,107.272 92.9882,114.938 79.5,118.5C 89.0274,110.902 98.3607,103.069 107.5,95C 108.749,94.2599 109.749,94.4265 110.5,95.5 Z"/></g>
<g><path style="opacity:1" fill="#340afb" d="M 49.5,94.5 C 49.8333,95.1667 50.1667,95.8333 50.5,96.5C 51.4922,99.7786 51.6588,103.112 51,106.5C 46.6935,108.982 42.8601,111.982 39.5,115.5C 36.0078,114.59 33.0078,112.924 30.5,110.5C 31.8716,106.954 34.205,104.12 37.5,102C 42.1749,99.6754 46.1749,97.1754 49.5,94.5 Z"/></g>
<g><path style="opacity:1" fill="#e005fb" d="M 73.5,99.5 C 74.0967,99.7352 74.4301,100.235 74.5,101C 73.7035,105.422 71.0368,108.088 66.5,109C 62.8989,113.111 58.8989,116.611 54.5,119.5C 53.8333,119.5 53.1667,119.5 52.5,119.5C 52.1667,119.5 51.8333,119.5 51.5,119.5C 50.6016,118.842 49.6016,118.176 48.5,117.5C 48.6667,117.167 48.8333,116.833 49,116.5C 55.4256,111.221 61.9256,106.221 68.5,101.5C 69.9303,100.463 71.597,99.7959 73.5,99.5 Z"/></g>
<g><path style="opacity:1" fill="#fc003b" d="M 114.5,89.5 C 113.66,91.8525 112.326,93.8525 110.5,95.5C 109.749,94.4265 108.749,94.2599 107.5,95C 98.3607,103.069 89.0274,110.902 79.5,118.5C 79.1667,118.5 78.8333,118.5 78.5,118.5C 77.448,118.649 76.448,118.483 75.5,118C 81.8333,113.667 88.1667,109.333 94.5,105C 100.246,98.6293 106.912,93.4626 114.5,89.5 Z"/></g>
</svg>
